<svg
   viewBox="0 0 309.77695 80"
   version="1.1"
   id="svg13"
   width="309.77695"
   height="80"
   xmlns="http://www.w3.org/2000/svg"
   xmlns:svg="http://www.w3.org/2000/svg">
  <defs
     id="defs1">
    <style
       id="style1">.cls-1{fill:none;}.cls-2{fill:#fff;}.cls-3{fill:#2b6ade;}.cls-4{fill:#3fffe1;}.cls-5{clip-path:url(#clip-path);}</style>
  </defs>
  <g
     id="Capa_4"
     data-name="Capa 4"
     style="fill:#ffffff"
     transform="matrix(0.24574551,0,0,0.24574551,-129.17858,-19.730907)">
    <path
       class="cls-2"
       d="M 635.69,616.46 578.8,447.18 h 36.4 l 27,87.42 c 3.89,12.55 21.61,12.69 25.68,0.19 l 28.56,-87.61 h 30.39 l 28.35,86.25 c 4.15,12.62 22.06,12.47 26,-0.23 l 26.6,-86 h 36.4 L 787.3,616.46 h -37.46 l -38.16,-119.8 -37.82,119.8 z"
       transform="translate(-53.14,-278.17)"
       id="path1"
       style="fill:#ffffff" />
    <path
       class="cls-2"
       d="M 1017.72,447.18 V 616.46 H 997 a 10.82,10.82 0 0 1 -10.44,-8 L 983.43,597 a 55.72,55.72 0 0 1 -22.61,17.67 69.23,69.23 0 0 1 -27.92,6 79.68,79.68 0 0 1 -33,-6.89 84.43,84.43 0 0 1 -26.9,-18.88 91.65,91.65 0 0 1 0,-125.81 84.71,84.71 0 0 1 26.86,-18.9 79.68,79.68 0 0 1 33,-6.89 69.79,69.79 0 0 1 27.21,5.47 63.69,63.69 0 0 1 23.32,17.14 L 986.51,455 a 10.8,10.8 0 0 1 10.39,-7.86 z M 932.9,590.3 a 43,43 0 0 0 19.44,-4.58 49.82,49.82 0 0 0 15.9,-12.55 61.1,61.1 0 0 0 10.6,-18.56 67.68,67.68 0 0 0 0,-45.23 60.93,60.93 0 0 0 -10.6,-18.55 49.82,49.82 0 0 0 -15.9,-12.55 43.38,43.38 0 0 0 -38.88,0 49.6,49.6 0 0 0 -15.9,12.55 60.73,60.73 0 0 0 -10.56,18.55 67.68,67.68 0 0 0 0,45.23 60.9,60.9 0 0 0 10.6,18.56 49.6,49.6 0 0 0 15.9,12.55 42.92,42.92 0 0 0 19.4,4.58 z"
       transform="translate(-53.14,-278.17)"
       id="path2"
       style="fill:#ffffff" />
    <path
       class="cls-2"
       d="m 1134.69,477.58 v -30.4 h -45.94 v -45.24 h -34.28 v 161.51 q 0,23.32 7.07,36.22 7.07,12.9 18.37,18 a 51.46,51.46 0 0 0 25.45,4.06 114.67,114.67 0 0 0 28.62,-6 l -6.71,-25.09 a 138.44,138.44 0 0 1 -18,1.41 q -7.43,0 -12,-2.47 a 13.82,13.82 0 0 1 -6.54,-7.42 q -1.95,-4.93 -1.94,-13.43 v -91.15 z"
       transform="translate(-53.14,-278.17)"
       id="path3"
       style="fill:#ffffff" />
    <path
       class="cls-2"
       d="m 1229.75,620.7 a 79.74,79.74 0 0 1 -33,-6.89 83.3,83.3 0 0 1 -26.75,-18.91 92.27,92.27 0 0 1 0,-125.81 83.59,83.59 0 0 1 26.75,-18.9 82.57,82.57 0 0 1 70.86,2.29 85,85 0 0 1 29,25.1 l -24,18.72 a 50.76,50.76 0 0 0 -17.86,-16.07 47.77,47.77 0 0 0 -23.15,-5.83 47.28,47.28 0 0 0 -20.14,4.41 51.41,51.41 0 0 0 -16.61,12.2 57.29,57.29 0 0 0 -11.13,18.37 64.87,64.87 0 0 0 0,45.23 59.55,59.55 0 0 0 11.13,18.56 52.45,52.45 0 0 0 16.61,12.55 45.86,45.86 0 0 0 20.14,4.58 44.79,44.79 0 0 0 25.1,-7.42 57.07,57.07 0 0 0 18.3,-19.78 l 23.32,20.49 a 84.11,84.11 0 0 1 -29.33,27 79.17,79.17 0 0 1 -39.24,10.11 z"
       transform="translate(-53.14,-278.17)"
       id="path4"
       style="fill:#ffffff" />
    <path
       class="cls-2"
       d="m 1355.56,616.46 h -34.28 v -258 h 34.28 l -0.08,104.26 q 9.52,-10.62 19.92,-15 10.4,-4.38 24.16,-4.42 17.63,0 31.55,6.89 a 71.37,71.37 0 0 1 23.79,18.9 83.55,83.55 0 0 1 15,28.27 115.15,115.15 0 0 1 5.1,34.64 v 84.47 h -34.28 V 532 a 74.76,74.76 0 0 0 -3.36,-22.61 61,61 0 0 0 -9.19,-18.37 45.19,45.19 0 0 0 -13.43,-12.2 32.08,32.08 0 0 0 -16.43,-4.41 39.46,39.46 0 0 0 -14.85,3 37.85,37.85 0 0 0 -13.6,9.71 53.18,53.18 0 0 0 -10.25,17.67 q -4.06,11 -4.06,26.51 z"
       transform="translate(-53.14,-278.17)"
       id="path5"
       style="fill:#ffffff" />
    <path
       class="cls-2"
       d="m 1520.6,410.42 a 20.83,20.83 0 0 1 -15.55,-6.53 21.76,21.76 0 0 1 -6.37,-15.73 21.92,21.92 0 1 1 43.83,0 21.76,21.76 0 0 1 -6.37,15.73 20.84,20.84 0 0 1 -15.54,6.53 z m 17.67,206 h -34.64 V 447.18 h 34.28 z"
       transform="translate(-53.14,-278.17)"
       id="path6"
       style="fill:#ffffff" />
    <path
       class="cls-2"
       d="m 1658.42,477.58 v -30.4 h -45.93 v -45.24 h -34.28 v 161.51 q 0,23.32 7.06,36.22 7.06,12.9 18.38,18 11.3,5.12 25.45,4.06 a 114.77,114.77 0 0 0 28.62,-6 L 1651,590.66 a 138.18,138.18 0 0 1 -18,1.41 q -7.43,0 -12,-2.47 a 13.86,13.86 0 0 1 -6.54,-7.42 q -1.93,-4.93 -1.93,-13.43 v -91.17 z"
       transform="translate(-53.14,-278.17)"
       id="path7"
       style="fill:#ffffff" />
    <path
       class="cls-2"
       d="m 1731.58,597.38 -71.74,-150.2 c 0.16,0.34 4.72,0 5.13,0 3.92,0 8,-0.38 11.93,0 7.51,0.76 14.08,2.82 19.94,7.81 6.12,5.21 10.82,12.48 14.24,19.67 l 9.92,20.85 15.53,32.64 1.45,3 a 13.51,13.51 0 0 0 24.44,-0.1 l 39.13,-83.91 h 37.81 L 1739,664.9 a 32.78,32.78 0 0 1 -29.83,19.1 h -16.82 z"
       transform="translate(-53.14,-278.17)"
       id="path8"
       style="fill:#ffffff" />
    <rect
       class="cls-2"
       x="984.16998"
       y="169.00999"
       width="24.809999"
       height="30.4"
       id="rect8"
       style="fill:#ffffff" />
    <rect
       class="cls-2"
       x="1507.91"
       y="169.00999"
       width="23.9"
       height="30.4"
       id="rect9"
       style="fill:#ffffff" />
    <rect
       class="cls-2"
       x="1588.83"
       y="169.00999"
       width="32.91"
       height="30.4"
       id="rect10"
       style="fill:#ffffff" />
  </g>
</svg>
